<?xml version="1.0" encoding="utf-8"?>
<!-- Generator: Adobe Illustrator 24.0.1, SVG Export Plug-In . SVG Version: 6.00 Build 0)  -->
<svg version="1.1" id="DFIX" xmlns="http://www.w3.org/2000/svg" xmlns:xlink="http://www.w3.org/1999/xlink" x="0px" y="0px"
	 width="1024px" height="1024px" viewBox="0 0 1024 1024" style="enable-background:new 0 0 1024 1024;" xml:space="preserve">
<style type="text/css">
	.st0{fill:#434949;}
	.st1{fill:#009685;}
</style>
<g id="Index">
	<path class="st0" d="M1012,357.2c-11.1,76.5-22.2,152.9-33.3,229.4c-21.1-21.2-42.3-42.3-63.4-63.4L537.8,900.6l-0.4-0.4l-0.1,0.1
		l-61.1-61.1L335.8,698.8l-29,29L81.2,953.4L12,884.2l257.4-257.4c22.3-22.3,44.7-44.7,67-67c67.1,67.5,134.2,135.1,201.2,202.6
		l14-14l86.5-86.5L761.9,538L846,454c-21.1-21.2-42.3-42.3-63.4-63.4C859.1,379.4,935.5,368.3,1012,357.2z"/>
</g>
<g id="Omega">
	<path id="O" class="st1" d="M638.3,639.3L762,515.7C759.2,337.2,657.7,231.5,512,231.5c-147.7,0-250,108.2-250,291.6
		c0,28.9,2.5,56.1,7.4,81.3l67-67l31.5,31.5c-1.8-14.5-2.7-29.8-2.7-45.8c0-127.3,57.6-204.3,146.7-204.3
		c89.2,0,146.7,77,146.7,204.3C658.7,568.1,651.5,607.4,638.3,639.3z"/>
	<path id="mega" class="st1" d="M625.5,70.6L512,147.8L398.7,70.6H375v14l92.2,115.2h90.2l91.9-115.2v-14H625.5z"/>
</g>
</svg>
