<?xml version="1.0" encoding="utf-8"?>
<!-- Generator: Adobe Illustrator 24.0.1, SVG Export Plug-In . SVG Version: 6.00 Build 0)  -->
<svg version="1.1" id="line" xmlns="http://www.w3.org/2000/svg" xmlns:xlink="http://www.w3.org/1999/xlink" x="0px" y="0px"
	 width="512px" height="512px" viewBox="0 0 512 512" style="enable-background:new 0 0 512 512;" xml:space="preserve">
<style type="text/css">
	.st0{fill:#5868FF;}
</style>
<g>
	<g>
		<path class="st0" d="M382.7,86.4l14.2-14.2l28.2,28.2l-14.2,14.2L382.7,86.4z"/>
	</g>
	<g>
		<path class="st0" d="M463.7,167.6l14.2-14.2l28.2,28.2l-14.2,14.2L463.7,167.6z"/>
	</g>
	<g>
		<path class="st0" d="M460.2,100.6l28.2-28.2l14.2,14.2l-28.2,28.2L460.2,100.6z"/>
	</g>
</g>
<g>
	<path class="st0" d="M170.4,452.9H60.8C30.5,452.9,6,428.4,6,398.1v-309c0-30.3,24.5-54.8,54.8-54.8H270
		c30.3,0,54.8,24.5,54.8,54.8v109.6H295V89.1c0-13.7-11.2-24.9-24.9-24.9H60.7c-13.7,0-24.9,11.2-24.9,24.9V398
		c0,13.7,11.2,24.9,24.9,24.9h109.6L170.4,452.9L170.4,452.9z"/>
</g>
<g>
	<path class="st0" d="M83.5,251.8c0-60.1,33.5-95.4,82-95.4s82,35.6,82,95.4c0,60.1-33.5,97-82,97S83.5,311.8,83.5,251.8z
		 M213.5,251.8c0-41.8-18.8-66.8-48.1-66.8s-48.1,25.2-48.1,66.8s18.8,68.2,48.1,68.2C194.5,320,213.5,293.4,213.5,251.8z"/>
	<path class="st0" d="M202.5,103.5l-37.1,25.4l-37.1-25.4h-7.7v4.5l30.3,37.8h29.6l30.1-37.8v-4.5H202.5z"/>
</g>
<g>
	<path class="st0" d="M355.4,357.6c-34.5,0-62.6-28-62.6-62.6s28-62.6,62.6-62.6c34.5,0,62.6,28,62.6,62.6S390,357.6,355.4,357.6z
		 M355.4,263.7c-17.2,0-31.2,14-31.2,31.2c0,17.2,14,31.3,31.2,31.3c17.2,0,31.3-14,31.3-31.3C386.6,277.7,372.6,263.7,355.4,263.7z
		"/>
</g>
<g>
	<path class="st0" d="M470.1,477.7h-31.2v-31.2c0-14.4-11.8-26.1-26.1-26.1H298c-14.4,0-26.1,11.8-26.1,26.1v31.2h-31.3v-31.2
		c0-31.7,25.8-57.5,57.5-57.5H413c31.7,0,57.5,25.8,57.5,57.5v31.2H470.1z"/>
</g>
</svg>
