<?xml version="1.0" encoding="utf-8"?>
<!-- Generator: Adobe Illustrator 24.0.1, SVG Export Plug-In . SVG Version: 6.00 Build 0)  -->
<svg version="1.1" id="Layer_1" xmlns="http://www.w3.org/2000/svg" xmlns:xlink="http://www.w3.org/1999/xlink" x="0px" y="0px"
	 width="32px" height="32px" viewBox="0 0 32 32" style="enable-background:new 0 0 32 32;" xml:space="preserve">
<style type="text/css">
	.st0{fill:#0C0C0C;}
</style>
<g id="Omega">
	<path id="O" class="st0" d="M5.6,19.2C5.6,11.6,9.9,7.2,16,7.2s10.4,4.5,10.4,12.1c0,7.6-4.2,12.3-10.4,12.3S5.6,26.8,5.6,19.2z
		 M22.1,19.2c0-5.3-2.4-8.5-6.1-8.5S9.9,14,9.9,19.2s2.4,8.6,6.1,8.6S22.1,24.5,22.1,19.2z"/>
	<path id="mega" class="st0" d="M20.7,0.5L16,3.7l-4.7-3.2h-1v0.6l3.8,4.8h3.7l3.8-4.8V0.5H20.7z"/>
</g>
</svg>
