<?xml version="1.0" encoding="utf-8"?>
<!-- Generator: Adobe Illustrator 24.0.1, SVG Export Plug-In . SVG Version: 6.00 Build 0)  -->
<svg version="1.1" id="omgswap-logo" xmlns="http://www.w3.org/2000/svg" xmlns:xlink="http://www.w3.org/1999/xlink" x="0px"
	 y="0px" width="124px" height="32px" viewBox="0 0 124 32" style="enable-background:new 0 0 124 32;" xml:space="preserve">
<style type="text/css">
	.st0{fill:#0C0C0C;}
</style>
<g id="omgswap">
	<path class="st0" d="M17,10.5c0.1-0.1,0.2-0.2,0.3-0.3s0.3-0.1,0.4,0.1c0.2,0.2,0.5,0.5,0.7,0.9c0.2,0.4,0.4,0.9,0.6,1.4
		c0.2,0.5,0.3,1.1,0.5,1.7c0.1,0.6,0.2,1.1,0.2,1.7c0,1.3-0.2,2.4-0.7,3.5c-0.5,1.1-1.1,2-1.9,2.9c-0.8,0.8-1.8,1.4-2.9,1.9
		c-1.1,0.5-2.3,0.7-3.5,0.7S8.2,25,7.1,24.5c-1.1-0.5-2-1.1-2.9-1.9c-0.8-0.8-1.4-1.8-1.9-2.9c-0.5-1.1-0.7-2.3-0.7-3.5
		c0-1.2,0.2-2.4,0.7-3.5s1.1-2.1,1.9-2.9c0.8-0.8,1.8-1.5,2.9-1.9C8.2,7.3,9.4,7,10.6,7c1.4,0,2.8,0.3,4,0.9C14.9,8,15,8.2,14.9,8.5
		c0,0-0.1,0.2-0.2,0.3c-0.1,0.2-0.2,0.4-0.3,0.6C14.3,9.6,14.1,9.8,14,10c-0.1,0.2-0.2,0.3-0.2,0.3c-0.1,0.1-0.2,0.2-0.3,0.2
		s-0.3,0-0.4-0.1c-0.7-0.3-1.5-0.5-2.4-0.5c-0.8,0-1.6,0.2-2.3,0.5s-1.3,0.7-1.9,1.3c-0.5,0.5-1,1.2-1.3,1.9
		c-0.3,0.7-0.5,1.5-0.5,2.3c0,0.8,0.2,1.6,0.5,2.3c0.3,0.7,0.7,1.3,1.3,1.9c0.5,0.5,1.2,1,1.9,1.3c0.7,0.3,1.5,0.5,2.3,0.5
		s1.6-0.2,2.3-0.5c0.7-0.3,1.4-0.7,1.9-1.3c0.5-0.5,1-1.2,1.3-1.9c0.3-0.7,0.5-1.5,0.5-2.3c0-0.3,0-0.6-0.1-1
		c-0.1-0.3-0.1-0.7-0.2-1s-0.2-0.6-0.3-0.9c-0.1-0.3-0.3-0.5-0.4-0.6c-0.1-0.1-0.1-0.2-0.1-0.3s0-0.2,0-0.2c0-0.1,0.1-0.1,0.1-0.2
		c0.2-0.2,0.5-0.4,0.6-0.6c0.2-0.1,0.3-0.3,0.5-0.4C16.9,10.6,17,10.5,17,10.5z"/>
	<path class="st0" d="M40.8,24.9h-2.3c-0.1,0-0.2,0-0.2-0.1c-0.1-0.1-0.1-0.1-0.1-0.2L36.6,15c0-0.1,0-0.1-0.1-0.1s-0.1,0-0.1,0.1
		l-4.6,10c-0.1,0.1-0.2,0.2-0.3,0.2h-0.4c-0.1,0-0.2-0.1-0.3-0.2c0,0,0,0,0-0.1c0,0-0.1-0.1-0.1-0.3c-0.1-0.2-0.2-0.5-0.4-0.9
		s-0.4-1-0.8-1.7c-0.3-0.7-0.8-1.7-1.3-2.8c-0.5-1.1-1.1-2.5-1.9-4.3c0-0.1-0.1-0.1-0.1-0.1c-0.1,0-0.1,0.1-0.1,0.1l-1.8,9.7
		c0,0.1-0.1,0.1-0.1,0.2c-0.1,0.1-0.1,0.1-0.2,0.1h-2.3c-0.1,0-0.2,0-0.2-0.1c-0.1-0.1-0.1-0.2-0.1-0.3l2.9-17.2
		c0-0.2,0.1-0.3,0.3-0.3h0.7c0.1,0,0.3,0.1,0.3,0.2l5.4,12c0.1,0.1,0.2,0.1,0.3,0c0.9-2,1.6-3.7,2.2-5.1c0.6-1.4,1.1-2.5,1.5-3.4
		s0.7-1.6,0.9-2c0.2-0.5,0.4-0.8,0.5-1s0.2-0.4,0.2-0.4V7.2c0-0.1,0.2-0.2,0.3-0.2h0.7c0.2,0,0.3,0.1,0.3,0.3c0.4,2.1,0.7,4,1,5.7
		c0.3,1.6,0.5,3,0.7,4.3s0.4,2.2,0.5,3c0.1,0.8,0.3,1.5,0.4,2l0.4,2.1C41.2,24.7,41.1,24.9,40.8,24.9z"/>
	<path class="st0" d="M58.2,16.4c0.1,0.1,0.1,0.2,0.1,0.3v6.3c0,0.1,0,0.2-0.1,0.3c0,0.1-0.1,0.1-0.1,0.2l0,0c0,0-0.2,0.1-0.5,0.3
		c-0.3,0.2-0.8,0.4-1.3,0.6s-1.2,0.4-1.9,0.5c-0.7,0.1-1.5,0.2-2.4,0.2c-1.2,0-2.4-0.2-3.5-0.7c-1.1-0.5-2-1.1-2.9-1.9
		c-0.8-0.8-1.5-1.7-1.9-2.8c-0.5-1.1-0.7-2.3-0.7-3.5c0-1.3,0.2-2.4,0.7-3.5s1.1-2.1,1.9-2.9s1.8-1.5,2.9-1.9
		C49.5,7.2,50.6,7,51.9,7c1.1,0,2.2,0.2,3.3,0.6c1,0.4,2,1,2.8,1.7c0.1,0.1,0.1,0.2,0.2,0.3c0,0.1,0,0.2-0.1,0.3L58,10.1
		c-0.1,0.1-0.3,0.3-0.5,0.5c-0.2,0.2-0.5,0.5-0.9,0.9c-0.1,0.2-0.3,0.2-0.5,0c-0.6-0.5-1.2-0.9-1.8-1.1c-0.7-0.2-1.4-0.4-2.1-0.4
		c-0.8,0-1.6,0.2-2.3,0.5c-0.7,0.3-1.3,0.8-1.8,1.3c-0.5,0.5-0.9,1.2-1.2,1.9c-0.3,0.7-0.4,1.5-0.4,2.3c0,0.8,0.1,1.6,0.4,2.3
		c0.3,0.7,0.7,1.4,1.2,1.9s1.1,1,1.8,1.3c0.7,0.3,1.5,0.5,2.3,0.5c0.7,0,1.3-0.1,1.9-0.2c0.5-0.1,0.9-0.3,1.2-0.4l0.1-0.1v-2.1
		c0-0.1,0-0.2-0.1-0.2h-2.6c-0.2,0-0.3-0.1-0.4-0.2s-0.1-0.2-0.1-0.3v-1.7c0-0.1,0-0.2,0.1-0.3c0.1-0.1,0.2-0.1,0.4-0.1H58
		C58,16.2,58.1,16.3,58.2,16.4z"/>
	<path class="st0" d="M60.9,22.9c-0.1-0.1-0.2-0.2-0.2-0.3c0-0.1,0-0.2,0.1-0.3l0,0l0.9-1.6c0.1-0.1,0.2-0.2,0.3-0.2
		c0.1,0,0.2,0,0.3,0.1l0,0c0.1,0.1,0.3,0.2,0.6,0.4c0.3,0.2,0.7,0.4,1.1,0.6s0.8,0.4,1.3,0.5c0.5,0.2,0.9,0.2,1.3,0.2
		c0.7,0,1.3-0.2,1.7-0.6c0.5-0.4,0.7-0.9,0.7-1.5c0-0.7-0.3-1.3-0.8-1.8c-0.5-0.5-1.4-1-2.5-1.4c-0.6-0.2-1.2-0.5-1.7-0.8
		c-0.6-0.3-1.1-0.7-1.5-1.1c-0.4-0.4-0.8-0.9-1-1.5c-0.3-0.6-0.4-1.2-0.4-1.9c0-0.5,0.1-1.1,0.3-1.7c0.2-0.6,0.6-1.1,1-1.6
		c0.5-0.5,1-0.8,1.7-1.1c0.7-0.3,1.5-0.4,2.5-0.4c0.6,0,1.2,0.1,1.8,0.3c0.6,0.1,1.1,0.3,1.5,0.5c0.5,0.2,0.8,0.4,1.2,0.5
		c0.3,0.2,0.5,0.3,0.7,0.4c0.1,0.1,0.2,0.2,0.2,0.3s0,0.2-0.1,0.3c-0.1,0.2-0.3,0.5-0.5,0.7c-0.2,0.2-0.3,0.5-0.5,0.7
		c-0.1,0.1-0.2,0.2-0.3,0.3c-0.1,0.1-0.3,0.1-0.4,0c0,0-0.2-0.1-0.5-0.3c-0.3-0.2-0.6-0.3-1-0.5c-0.4-0.2-0.8-0.3-1.2-0.5
		s-0.8-0.2-1.2-0.2c-0.4,0-0.7,0.1-1,0.2c-0.3,0.1-0.5,0.3-0.7,0.4c-0.2,0.2-0.3,0.4-0.4,0.6c-0.1,0.2-0.1,0.4-0.1,0.7
		c0,0.6,0.3,1.2,0.8,1.6c0.5,0.4,1.3,0.9,2.3,1.4c0.6,0.3,1.2,0.6,1.8,0.9c0.6,0.3,1.2,0.7,1.7,1.1c0.5,0.4,0.9,0.9,1.2,1.5
		c0.3,0.6,0.5,1.3,0.5,2c0,0.6-0.1,1.3-0.4,1.9c-0.3,0.6-0.6,1.1-1.1,1.6c-0.5,0.5-1.1,0.8-1.8,1.1c-0.7,0.3-1.5,0.4-2.4,0.3
		c-0.8,0-1.5-0.1-2.2-0.3c-0.7-0.2-1.3-0.4-1.8-0.6s-0.9-0.4-1.3-0.7C61.2,23.3,61,23,60.9,22.9L60.9,22.9z"/>
	<path class="st0" d="M94.7,13c0.1,0.1,0.1,0.3,0,0.4l0,0l-4.5,11l0,0c0,0.1-0.1,0.2-0.2,0.3c-0.1,0.1-0.2,0.1-0.3,0.1h-1.6
		c-0.3,0-0.5-0.1-0.6-0.4l-2.8-6.8c0-0.1-0.1-0.2-0.3-0.2c-0.1,0-0.2,0.1-0.2,0.2l-2.8,6.8l0,0c-0.1,0.2-0.2,0.4-0.5,0.4h-1.6
		c-0.2,0-0.3,0-0.4-0.1c-0.1-0.1-0.2-0.2-0.2-0.3l0,0l-4.8-11l0,0c-0.1-0.1-0.1-0.3,0-0.4c0.1-0.1,0.2-0.2,0.4-0.2h2
		c0.1,0,0.3,0,0.4,0.1c0.1,0,0.2,0.2,0.3,0.3l0,0l2.8,6.6l0,0c0,0.1,0.1,0.1,0.1,0.1s0.1,0,0.1-0.1l2.7-6.6l0,0
		c0-0.1,0.1-0.2,0.2-0.3c0.1-0.1,0.1-0.1,0.2-0.1h2.1c0.1,0,0.3,0,0.3,0.1c0.1,0,0.1,0.1,0.2,0.3l2.9,6.7c0,0.1,0.1,0.1,0.1,0.1
		s0.1,0,0.1-0.1l2.7-6.6l0,0c0.1-0.2,0.2-0.3,0.3-0.3c0.1-0.1,0.3-0.1,0.5-0.1l0,0h1.8C94.5,12.8,94.6,12.9,94.7,13z"/>
	<path class="st0" d="M107.7,24.2c0,0.2-0.1,0.3-0.2,0.4c-0.1,0.1-0.3,0.2-0.5,0.2h-1.6c-0.2,0-0.3-0.1-0.5-0.2
		c-0.1-0.1-0.2-0.3-0.2-0.4v-2.4c0-0.3,0-0.6,0-0.9s0-0.6,0-0.8c0-0.2,0-0.4,0-0.6c0-0.2,0-0.2,0-0.3c0-0.8-0.1-1.4-0.4-1.9
		c-0.3-0.5-0.7-0.9-1.3-1.2c-0.4-0.2-0.8-0.3-1.2-0.4c-0.4,0-0.9,0-1.3,0.1s-0.8,0.3-1.1,0.6c-0.3,0.3-0.6,0.6-0.8,1
		c-0.3,0.6-0.5,1.2-0.4,1.8c0.1,0.6,0.3,1.2,0.7,1.7c0.4,0.5,0.8,0.9,1.4,1.2c0.6,0.3,1.2,0.3,1.9,0.1c0.2,0,0.3,0,0.4,0
		c0.1,0.1,0.2,0.2,0.3,0.3l0.7,1.9c0,0.1,0,0.2-0.2,0.3c-0.9,0.3-1.8,0.4-2.6,0.3c-0.8-0.1-1.6-0.3-2.3-0.7
		c-0.7-0.4-1.3-0.8-1.8-1.4c-0.5-0.6-0.9-1.3-1.1-2c-0.2-0.7-0.3-1.5-0.3-2.3s0.3-1.6,0.7-2.4c0.4-0.7,0.9-1.3,1.5-1.8
		c0.6-0.5,1.3-0.9,2.1-1.1c0.7-0.2,1.5-0.3,2.3-0.2c0.8,0.1,1.5,0.4,2.2,0.8c0.1,0.1,0.2,0.2,0.3,0.2c0.1,0,0.2-0.1,0.2-0.3
		c0-0.2,0.1-0.3,0.2-0.4c0.1-0.1,0.3-0.2,0.4-0.2h1.8c0.2,0,0.3,0.1,0.5,0.2c0.1,0.1,0.2,0.3,0.2,0.4L107.7,24.2L107.7,24.2z"/>
	<path class="st0" d="M122.7,19.8c-0.1,0.8-0.4,1.6-0.8,2.2c-0.4,0.7-0.9,1.2-1.6,1.7c-0.6,0.4-1.3,0.8-2.1,1
		c-0.8,0.2-1.6,0.2-2.4,0.1c-0.4-0.1-0.8-0.2-1.2-0.3c-0.3-0.2-0.7-0.3-1-0.5v6.6c0,0.2-0.1,0.3-0.2,0.4c-0.1,0.1-0.2,0.2-0.4,0.2
		h-1.7c-0.2,0-0.3-0.1-0.5-0.2s-0.2-0.3-0.2-0.4V13.4c0-0.2,0.1-0.3,0.2-0.4c0.1-0.1,0.3-0.2,0.5-0.2h1.7c0.1,0,0.3,0.1,0.4,0.2
		c0.1,0.1,0.2,0.3,0.2,0.4v5.9c0,0.3,0.1,0.6,0.2,0.9c0.1,0.3,0.3,0.6,0.6,0.8c0.2,0.2,0.5,0.4,0.8,0.6c0.3,0.2,0.7,0.3,1.1,0.3
		c0.4,0.1,0.9,0,1.3-0.1c0.4-0.1,0.8-0.3,1.1-0.5c0.3-0.2,0.6-0.5,0.8-0.9s0.4-0.8,0.4-1.2c0.1-0.4,0-0.9,0-1.3
		c0-0.4-0.3-0.8-0.5-1.1c-0.2-0.3-0.5-0.6-0.9-0.9c-0.4-0.2-0.8-0.4-1.2-0.5c-0.2,0-0.5,0-0.7,0s-0.4,0-0.6,0.1
		c-0.1,0.1-0.3,0.1-0.4,0c-0.1-0.1-0.2-0.2-0.3-0.4l-0.6-1.6c0-0.2,0-0.3,0-0.3c0-0.1,0.1-0.1,0.1-0.1c0.5-0.1,0.9-0.2,1.4-0.3
		c0.5-0.1,1-0.1,1.5,0c0.8,0.1,1.6,0.4,2.2,0.8c0.7,0.4,1.2,1,1.7,1.6c0.5,0.6,0.8,1.3,1,2.1C122.8,18.2,122.8,19,122.7,19.8z"/>
</g>
</svg>
