<?xml version="1.0" encoding="utf-8"?>
<!-- Generator: Adobe Illustrator 24.0.1, SVG Export Plug-In . SVG Version: 6.00 Build 0)  -->
<svg version="1.1" id="Layer_1" xmlns="http://www.w3.org/2000/svg" xmlns:xlink="http://www.w3.org/1999/xlink" x="0px" y="0px"
	 width="32px" height="32px" viewBox="0 0 32 32" style="enable-background:new 0 0 32 32;" xml:space="preserve">
<style type="text/css">
	.st0{fill:#008C73;}
</style>
<title>vertical_green</title>
<path class="st0" d="M16,0C9,0,3.3,5.7,3.3,12.7S9,25.3,16,25.3s12.7-5.7,12.7-12.7S23,0,16,0z M25.3,13.3h-5.9
	c-0.4,1.9-2.3,3.2-4.2,2.8c-1.9-0.4-3.2-2.3-2.8-4.2s2.3-3.2,4.2-2.8c1.5,0.3,2.6,1.5,2.8,3h5.8c0.3,0,0.6,0.3,0.6,0.6
	C25.9,13.1,25.6,13.3,25.3,13.3L25.3,13.3z"/>
<path class="st0" d="M4.9,31.9c-0.2,0-0.3-0.1-0.5-0.2c-0.1-0.1-0.3-0.2-0.4-0.3c-0.1-0.1-0.2-0.3-0.2-0.5c-0.1-0.4-0.1-0.8,0-1.3
	c0.1-0.2,0.2-0.4,0.3-0.5c0.1-0.2,0.3-0.3,0.5-0.4c0.2-0.1,0.5-0.1,0.7-0.1c0.3,0,0.5,0.1,0.7,0.2c0.2,0.1,0.4,0.2,0.6,0.4l-0.5,0.5
	c-0.2-0.2-0.5-0.3-0.8-0.3c-0.1,0-0.2,0-0.3,0.1c-0.1,0-0.2,0.1-0.3,0.2c-0.1,0.1-0.1,0.2-0.2,0.3c0,0.1-0.1,0.3-0.1,0.4
	c0,0.1,0,0.3,0.1,0.4c0,0.1,0.1,0.2,0.2,0.3c0.1,0.1,0.2,0.2,0.3,0.2c0.1,0.1,0.2,0.1,0.4,0.1c0.2,0,0.4-0.1,0.6-0.1v-0.4H5.4v-0.6
	h1.4v1.5c-0.2,0.1-0.4,0.2-0.6,0.3C6,31.9,5.7,32,5.5,32C5.3,32,5.1,32,4.9,31.9z"/>
<path class="st0" d="M9,29.7c0.1,0,0.2,0.1,0.3,0.2c0.1,0.1,0.1,0.2,0.2,0.3c0,0.1,0.1,0.3,0.1,0.4v1.4H8.7v-1.2c0-0.1,0-0.2,0-0.3
	c0-0.1-0.1-0.1-0.1-0.1c-0.1,0-0.1,0-0.2,0c-0.1,0-0.2,0-0.2,0.1c-0.1,0-0.1,0.1-0.1,0.2C8,30.6,8,30.7,8,30.8v1.1H7.2v-2.3H8V30h0
	c0.1-0.1,0.2-0.2,0.3-0.2c0.1-0.1,0.2-0.1,0.4-0.1C8.8,29.6,8.9,29.7,9,29.7z"/>
<path class="st0" d="M10.6,31.9c-0.1-0.1-0.3-0.1-0.4-0.2c-0.1-0.1-0.2-0.2-0.2-0.4c-0.1-0.3-0.1-0.6,0-0.9c0.1-0.1,0.1-0.3,0.2-0.4
	c0.1-0.1,0.2-0.2,0.4-0.2c0.2-0.1,0.3-0.1,0.5-0.1c0.2,0,0.4,0,0.6,0.1c0.2,0.1,0.3,0.2,0.4,0.4c0.2,0.4,0.2,0.8,0,1.2
	c-0.1,0.2-0.3,0.3-0.4,0.4c-0.2,0.1-0.4,0.2-0.6,0.1C10.9,32,10.7,32,10.6,31.9z M11.4,31.2c0.2-0.2,0.2-0.5,0-0.8
	c-0.2-0.2-0.5-0.2-0.7,0c0,0,0,0,0,0c-0.2,0.2-0.2,0.5,0,0.8C10.9,31.4,11.2,31.4,11.4,31.2C11.4,31.2,11.4,31.2,11.4,31.2
	L11.4,31.2z"/>
<path class="st0" d="M12.5,31.7l0.3-0.5c0.2,0.2,0.4,0.3,0.6,0.3c0,0,0.1,0,0.1,0c0,0,0.1,0,0.1,0c0,0,0,0,0-0.1c0,0,0-0.1-0.1-0.1
	c-0.1,0-0.2-0.1-0.3-0.1c-0.1,0-0.1,0-0.2-0.1C13.1,31,13,31,13,31c0,0-0.1-0.1-0.1-0.1c0,0-0.1-0.1-0.1-0.1c0,0-0.1-0.1-0.1-0.1
	c0,0,0-0.1-0.1-0.1c0-0.1,0-0.1,0-0.2c0-0.1,0-0.3,0.1-0.4c0.1-0.1,0.2-0.2,0.3-0.2c0.1-0.1,0.3-0.1,0.4-0.1c0.1,0,0.2,0,0.3,0
	c0.1,0,0.2,0.1,0.3,0.1c0.1,0,0.2,0.1,0.3,0.2l-0.3,0.5c-0.1-0.1-0.2-0.1-0.3-0.2c-0.1,0-0.2-0.1-0.3-0.1c0,0-0.1,0-0.1,0
	c0,0-0.1,0.1-0.1,0.1c0,0,0,0.1,0.1,0.1c0.1,0,0.1,0.1,0.2,0.1l0.1,0.1c0,0,0.1,0,0.1,0.1c0,0,0.1,0,0.1,0.1c0,0,0.1,0,0.1,0.1
	c0,0,0.1,0,0.1,0.1c0,0,0,0,0.1,0.1c0,0,0,0.1,0.1,0.1c0,0,0,0.1,0,0.1c0,0,0,0.1,0,0.1c0,0,0,0.1,0,0.1c0,0.1,0,0.2-0.1,0.3
	c0,0.1-0.1,0.2-0.2,0.2c-0.1,0.1-0.2,0.1-0.3,0.2c-0.1,0-0.3,0.1-0.4,0.1C13.1,32,12.8,31.9,12.5,31.7z"/>
<path class="st0" d="M14.8,29.3c-0.1-0.1-0.1-0.2-0.1-0.3c0-0.1,0-0.2,0.1-0.2c0-0.1,0.1-0.1,0.2-0.1c0.1,0,0.1-0.1,0.2-0.1
	c0.1,0,0.2,0,0.3,0.1c0.1,0.1,0.1,0.2,0.1,0.3c0,0.1,0,0.2-0.1,0.3C15.2,29.5,15,29.5,14.8,29.3L14.8,29.3z M14.7,29.7h0.7v2.3h-0.7
	V29.7z"/>
<path class="st0" d="M15.8,31.7l0.3-0.5c0.2,0.2,0.4,0.3,0.6,0.3c0,0,0.1,0,0.1,0c0,0,0.1,0,0.1,0c0,0,0,0,0-0.1c0,0,0-0.1-0.1-0.1
	c-0.1,0-0.2-0.1-0.3-0.1c-0.1,0-0.1,0-0.2-0.1c-0.1,0-0.1,0-0.1-0.1c0,0-0.1-0.1-0.1-0.1c0,0-0.1-0.1-0.1-0.1
	c-0.1-0.1-0.1-0.2-0.1-0.3c0-0.1,0-0.1,0-0.2c0-0.1,0-0.3,0.1-0.4c0.1-0.1,0.2-0.2,0.3-0.2c0.1-0.1,0.3-0.1,0.4-0.1
	c0.1,0,0.2,0,0.3,0c0.1,0,0.2,0.1,0.3,0.1c0.1,0,0.2,0.1,0.3,0.2l-0.3,0.5c-0.1-0.1-0.2-0.1-0.3-0.2c-0.1,0-0.2-0.1-0.3-0.1
	c0,0-0.1,0-0.1,0c0,0-0.1,0.1,0,0.1c0,0,0,0.1,0.1,0.1c0.1,0,0.1,0.1,0.2,0.1l0.1,0.1c0,0,0.1,0,0.1,0.1s0.1,0,0.1,0.1
	c0,0,0.1,0,0.1,0.1c0,0,0.1,0,0.1,0.1c0,0,0,0,0.1,0.1c0,0,0,0.1,0.1,0.1c0,0,0,0.1,0,0.1c0,0,0,0.1,0,0.1c0,0,0,0.1,0,0.1
	c0,0.1,0,0.2-0.1,0.3c0,0.1-0.1,0.2-0.2,0.2c-0.1,0.1-0.2,0.1-0.3,0.2C17,32,16.9,32,16.7,32C16.4,32,16.1,31.9,15.8,31.7z"/>
<path class="st0" d="M19.6,31.9c-0.2-0.1-0.4-0.2-0.6-0.4l0.5-0.6c0.1,0.1,0.2,0.2,0.4,0.3c0.1,0.1,0.3,0.1,0.4,0.1
	c0.1,0,0.1,0,0.2,0c0,0,0.1-0.1,0.1-0.1c0,0,0-0.1,0-0.1c0-0.1,0-0.2-0.1-0.2c-0.1-0.1-0.3-0.1-0.4-0.2c-0.1,0-0.2-0.1-0.2-0.1
	s-0.1-0.1-0.2-0.1c-0.1,0-0.1-0.1-0.2-0.1c-0.1,0-0.1-0.1-0.2-0.1c0-0.1-0.1-0.1-0.1-0.2c0-0.1-0.1-0.1-0.1-0.2c0-0.1,0-0.2,0-0.3
	c0-0.2,0-0.3,0.1-0.5c0.1-0.1,0.2-0.3,0.4-0.4c0.2-0.1,0.4-0.1,0.5-0.1c0.4,0,0.8,0.1,1.1,0.4l-0.4,0.6c-0.3-0.2-0.5-0.3-0.7-0.3
	c-0.1,0-0.2,0-0.2,0.1c-0.1,0-0.1,0.1-0.1,0.2c0,0.1,0,0.1,0.1,0.2c0.1,0.1,0.2,0.1,0.4,0.2c0.2,0.1,0.4,0.1,0.6,0.2
	c0.2,0.1,0.3,0.2,0.4,0.4c0,0.1,0.1,0.2,0.1,0.3c0,0.1,0,0.3-0.1,0.4c0,0.1-0.1,0.2-0.2,0.3c-0.1,0.1-0.2,0.1-0.3,0.2
	c-0.1,0.1-0.2,0.1-0.3,0.1c-0.1,0-0.2,0-0.3,0C20,32,19.8,32,19.6,31.9z"/>
<path class="st0" d="M24.1,29.7v2.3h-0.7v-0.2h0C23.3,31.9,23,32,22.8,32c-0.1,0-0.3,0-0.4-0.1c-0.1-0.1-0.2-0.1-0.3-0.2
	c-0.1-0.1-0.2-0.2-0.2-0.4c-0.1-0.3-0.1-0.6,0-1c0-0.1,0.1-0.3,0.2-0.4c0.1-0.1,0.2-0.2,0.3-0.2c0.1-0.1,0.3-0.1,0.4-0.1
	c0.2,0,0.5,0.1,0.6,0.3h0v-0.2H24.1z M23.3,31.2c0.1-0.1,0.1-0.2,0.1-0.4c0-0.1,0-0.2-0.1-0.3c0-0.1-0.1-0.1-0.2-0.2
	c-0.1,0-0.2-0.1-0.2-0.1c-0.1,0-0.3,0.1-0.3,0.1c-0.2,0.2-0.2,0.5,0,0.8C22.8,31.4,23.1,31.4,23.3,31.2
	C23.3,31.2,23.3,31.2,23.3,31.2L23.3,31.2z"/>
<path class="st0" d="M24.6,30.3h-0.2v-0.6h0.2v-0.4c0-0.3,0.1-0.5,0.2-0.6c0.1-0.1,0.3-0.2,0.5-0.2c0.1,0,0.2,0,0.4,0.1
	c0.1,0,0.2,0.1,0.2,0.1l-0.1,0.5c-0.1,0-0.2-0.1-0.3-0.1c-0.1,0-0.2,0.1-0.2,0.2v0.3h0.4v0.6h-0.4v1.7h-0.7V30.3z"/>
<path class="st0" d="M28.2,31h-1.5c0,0.1,0.1,0.2,0.2,0.3c0.1,0.1,0.2,0.1,0.3,0.1c0.2,0,0.4-0.1,0.5-0.3l0.4,0.4
	c-0.1,0.1-0.3,0.2-0.4,0.3C27.5,32,27.3,32,27.1,32c-0.2,0-0.3,0-0.5-0.1c-0.1-0.1-0.3-0.1-0.4-0.2c-0.1-0.1-0.2-0.2-0.2-0.4
	C26,31.1,26,31,26,30.8c0-0.2,0-0.3,0.1-0.5c0.1-0.3,0.3-0.5,0.6-0.6c0.1-0.1,0.3-0.1,0.5-0.1c0.2,0,0.4,0,0.6,0.1
	c0.2,0.1,0.3,0.2,0.4,0.4c0.1,0.2,0.1,0.4,0.1,0.6C28.2,30.9,28.2,30.9,28.2,31z M26.8,30.3c-0.1,0.1-0.1,0.2-0.2,0.3l0.8,0
	c0-0.1,0-0.1-0.1-0.2c0-0.1-0.1-0.1-0.1-0.1c-0.1,0-0.1,0-0.2,0C27,30.2,26.9,30.2,26.8,30.3z"/>
</svg>
