<?xml version="1.0" encoding="utf-8"?>
<!-- Generator: Adobe Illustrator 24.0.1, SVG Export Plug-In . SVG Version: 6.00 Build 0)  -->
<svg version="1.1" id="Layer_1" xmlns="http://www.w3.org/2000/svg" xmlns:xlink="http://www.w3.org/1999/xlink" x="0px" y="0px"
	 width="32px" height="32px" viewBox="0 0 32 32" style="enable-background:new 0 0 32 32;" xml:space="preserve">
<style type="text/css">
	.st0{fill:#00A6C4;}
</style>
<g>
	<path class="st0" d="M29,8l-1.2,1.2c0.9,1.5,1.2,3.3,0.6,5.1c-1.1,3-4.4,4.6-7.4,3.5c-0.4-0.2-0.8-0.3-1.2-0.6L16,21l-3.3-3.3
		c-1.5,1-3.5,1.3-5.3,0.7c-3.1-1.1-4.7-4.5-3.6-7.6C4,10.2,4.2,9.8,4.5,9.4L3,8L2.8,8.4c-1.5,2.4-2.3,5.2-2.3,8.1
		C0.5,25,7.4,32,16,32h0c8.5,0,15.5-6.9,15.5-15.5c0-2.8-0.8-5.6-2.2-8.1L29,8"/>
	<path class="st0" d="M6.2,11.1c-0.4,0.5-0.6,1.2-0.6,1.9c0,1.7,1.4,3.2,3.2,3.2c0.7,0,1.4-0.2,1.9-0.7L6.2,11.1 M21.7,15.3
		c0.5,0.3,1.1,0.5,1.8,0.5c1.7,0,3.2-1.4,3.2-3.2c0-0.6-0.2-1.3-0.5-1.8L21.7,15.3 M16.1,18.6L3.3,5.8l0.5-0.5
		C6.9,1.9,11.2,0,15.9,0h0c4.7,0,9.2,2,12.3,5.5L28.7,6L16.1,18.6 M5.4,5.8l10.7,10.7L26.6,6c-2.8-2.8-6.7-4.5-10.7-4.5h0
		C11.9,1.5,8.2,3,5.4,5.8"/>
</g>
</svg>
