<?xml version="1.0" encoding="utf-8"?>
<!-- Generator: Adobe Illustrator 24.0.1, SVG Export Plug-In . SVG Version: 6.00 Build 0)  -->
<svg version="1.1" id="line" xmlns="http://www.w3.org/2000/svg" xmlns:xlink="http://www.w3.org/1999/xlink" x="0px" y="0px"
	 width="512px" height="512px" viewBox="0 0 512 512" style="enable-background:new 0 0 512 512;" xml:space="preserve">
<style type="text/css">
	.st0{fill:#00BAA5;}
</style>
<g>
	<g>
		<path class="st0" d="M382.7,68.9l14.2-14.2L425,82.9l-14.2,14.2L382.7,68.9z"/>
	</g>
	<g>
		<path class="st0" d="M463.7,150.1l14.2-14.2l28.2,28.2l-14.2,14.2L463.7,150.1z"/>
	</g>
	<g>
		<path class="st0" d="M460.2,83.1l28.2-28.2l14.2,14.2l-28.2,28.2L460.2,83.1z"/>
	</g>
</g>
<g>
	<path class="st0" d="M170.4,435.4H60.8C30.5,435.4,6,410.8,6,380.6v-309c0-30.3,24.5-54.8,54.8-54.8H270
		c30.3,0,54.8,24.5,54.8,54.8v109.6H295V71.6c0-13.7-11.2-24.9-24.9-24.9H60.7c-13.7,0-24.9,11.2-24.9,24.9v308.9
		c0,13.7,11.2,24.9,24.9,24.9h109.6L170.4,435.4L170.4,435.4z"/>
</g>
<g>
	<path class="st0" d="M354.7,495.2c-71.5,0-129.5-58.2-129.5-129.5s58.2-129.5,129.5-129.5s129.5,58.2,129.5,129.5
		S426.1,495.2,354.7,495.2z M354.7,265.9c-54.9,0-99.6,44.7-99.6,99.6s44.7,99.6,99.6,99.6s99.6-44.7,99.6-99.6
		S409.6,265.9,354.7,265.9z"/>
</g>
<g>
	<path class="st0" d="M339.8,310.8h29.8v109.6h-29.8V310.8z"/>
</g>
<g>
	<path class="st0" d="M299.9,350.7h109.6v29.8H299.9V350.7L299.9,350.7z"/>
</g>
<g>
	<path class="st0" d="M83.5,234.3c0-60.1,33.5-95.4,82-95.4s82,35.6,82,95.4c0,60.1-33.5,97-82,97S83.5,294.3,83.5,234.3z
		 M213.5,234.3c0-41.8-18.8-66.8-48.1-66.8s-48.1,25.2-48.1,66.8s18.8,68.2,48.1,68.2C194.5,302.5,213.5,275.9,213.5,234.3z"/>
	<path class="st0" d="M202.5,86l-37.1,25.4L128.2,86h-7.7v4.5l30.3,37.8h29.6l30.1-37.8V86H202.5z"/>
</g>
</svg>
