<?xml version="1.0" encoding="utf-8"?>
<!-- Generator: Adobe Illustrator 24.0.1, SVG Export Plug-In . SVG Version: 6.00 Build 0)  -->
<svg version="1.1" id="line" xmlns="http://www.w3.org/2000/svg" xmlns:xlink="http://www.w3.org/1999/xlink" x="0px" y="0px"
	 width="512px" height="512px" viewBox="0 0 512 512" style="enable-background:new 0 0 512 512;" xml:space="preserve">
<style type="text/css">
	.st0{fill:#00BAA5;}
</style>
<g>
	<g>
		<path class="st0" d="M382.7,65.3l14.2-14.2L425,79.3l-14.2,14.2L382.7,65.3z"/>
	</g>
	<g>
		<path class="st0" d="M463.7,146.4l14.2-14.2l28.2,28.2l-14.2,14.2L463.7,146.4z"/>
	</g>
	<g>
		<path class="st0" d="M460.2,79.4l28.2-28.2l14.2,14.2l-28.2,28.2L460.2,79.4z"/>
	</g>
</g>
<g>
	<path class="st0" d="M170.4,431.7H60.8C30.5,431.7,6,407.2,6,376.9v-309c0-30.3,24.5-54.8,54.8-54.8H270
		c30.3,0,54.8,24.5,54.8,54.8v109.6H295V67.9c0-13.7-11.3-24.9-25-24.9H60.7C47,43,35.8,54.2,35.8,67.9v308.9
		c0,13.7,11.2,24.9,24.9,24.9h109.6L170.4,431.7L170.4,431.7z"/>
</g>
<g>
	<path class="st0" d="M83.5,230.6c0-60.1,33.5-95.4,82-95.4s82,35.6,82,95.4c0,60.1-33.5,97-82,97S83.5,290.6,83.5,230.6z
		 M213.5,230.6c0-41.8-18.8-66.8-48.1-66.8s-48.1,25.2-48.1,66.8s18.8,68.2,48.1,68.2C194.5,298.9,213.5,272.3,213.5,230.6z"/>
	<path class="st0" d="M202.5,82.4l-37.1,25.4l-37.1-25.4h-7.7v4.5l30.3,37.8h29.6l30.1-37.8v-4.5C210.6,82.4,202.5,82.4,202.5,82.4z
		"/>
</g>
<g>
	<path class="st0" d="M239.2,319.5H269V439h-29.8V319.5z"/>
</g>
<g>
	<path class="st0" d="M368.7,379.2c-64.3,0-129.5-20.5-129.5-59.8c0-78.5,259.1-78.5,259.1,0C498.2,358.7,433,379.2,368.7,379.2z
		 M368.7,289.5c-65.7,0-99.6,21-99.6,29.8s33.9,29.8,99.6,29.8s99.6-21,99.6-29.8S434.4,289.5,368.7,289.5z"/>
</g>
<g>
	<path class="st0" d="M368.7,498.9c-64.3,0-129.5-20.5-129.5-59.8H269c0,9,33.9,29.8,99.6,29.8s99.6-21,99.6-29.8H498
		C498.2,478.3,433,498.9,368.7,498.9z"/>
</g>
<g>
	<path class="st0" d="M368.7,439c-64.3,0-129.5-20.5-129.5-59.8H269c0,9,33.9,29.8,99.6,29.8s99.6-21,99.6-29.8H498
		C498.2,418.6,433,439,368.7,439z"/>
</g>
<g>
	<path class="st0" d="M468.3,319.5h29.8V439h-29.8V319.5z"/>
</g>
</svg>
